Coordinates
version=1
nRows=11
nColumns=36
inDegrees=yes

Units are S.I. units (second, meters, Newtons, ...)
If the header above contains a line with 'inDegrees', this indicates whether rotational values are in degrees (yes) or radians (no).

endheader
time	pelvis_tilt	pelvis_list	pelvis_rotation	pelvis_tx	pelvis_ty	pelvis_tz	hip_flexion_r	hip_adduction_r	hip_rotation_r	knee_angle_r	knee_angle_r_beta	ankle_angle_r	subtalar_angle_r	mtp_angle_r	hip_flexion_l	hip_adduction_l	hip_rotation_l	knee_angle_l	knee_angle_l_beta	ankle_angle_l	subtalar_angle_l	mtp_angle_l	lumbar_extension	lumbar_bending	lumbar_rotation	arm_flex_r	arm_add_r	arm_rot_r	elbow_flex_r	pro_sup_r	arm_flex_l	arm_add_l	arm_rot_l	elbow_flex_l	pro_sup_l
      0.33333330	     -2.49541838	      3.90683813	     -7.00294260	      0.85976691	      0.95044076	     -0.34129420	      2.85324674	      1.63891442	      5.06591038	      7.30740891	      0.12753835	      6.37728491	     -5.30811337	     -7.08260223	     18.18676973	     -4.23287535	     -0.74202265	     31.10193649	      0.54283120	      5.70205521	     -4.02238351	     -7.08260223	     -2.01999714	      2.57014786	      1.75642270	     37.77022532	    -13.15445113	     73.40429077	    132.45690615	    100.33558123	     36.90386441	     -3.30638454	     49.64081066	    120.70733975	    103.94347439
      0.35000000	     -2.44130662	      3.57451443	     -6.99617386	      0.85492605	      0.94470740	     -0.34622058	      2.67158796	      1.89042909	      5.31748223	      7.10959447	      0.12408583	      6.20175546	     -5.71239940	     -7.12153504	     17.11775910	     -4.54278082	     -0.94123001	     29.92298285	      0.52225457	      6.11830612	     -3.33171635	     -7.12153504	     -1.93537898	      3.08665664	      1.67238276	     37.83219152	    -12.45384951	     73.49817775	    132.57281565	     99.24167766	     36.61395614	     -3.35608927	     48.52557943	    120.58106281	    102.69944892
      0.36666670	     -2.53001771	      3.28936861	     -6.86106925	      0.85499596	      0.94798129	     -0.34722772	      2.67021077	      2.11885853	      5.39294214	      6.93131688	      0.12097430	      6.22301226	     -5.86615891	     -7.19569349	     16.55300923	     -4.76266151	     -1.10718056	     28.98622647	      0.50590509	      6.48176722	     -2.96293671	     -7.19569349	     -1.97927189	      3.48333182	      1.71346020	     37.53017353	    -12.33054946	     73.41120755	    131.60132933	     96.42614383	     36.28381107	     -3.53791177	     48.63932362	    121.11616080	     99.41508931
      0.38333330	     -2.49604687	      3.17119416	     -6.92796708	      0.86154292	      0.94631929	     -0.35108002	      2.41275447	      2.11612311	      5.57338888	      6.71366588	      0.11717557	      6.32629881	     -6.05113441	     -7.20298917	     15.40864723	     -4.77785702	     -1.37229379	     27.68957081	      0.48327418	      6.81126180	     -2.61336530	     -7.20298917	     -1.67313244	      3.76645910	      1.57197855	     36.76435773	    -12.14539955	     72.58868809	    131.10104362	     97.06337428	     35.48365171	     -3.47832432	     47.41070080	    120.72453342	    100.07964465
      0.40000000	     -2.79058846	      2.89091080	     -6.95326760	      0.85695525	      0.94496300	     -0.35613290	      2.71457913	      2.31314786	      5.65051003	      6.77952375	      0.11832501	      6.42972772	     -6.13326814	     -7.20381589	     14.97631114	     -4.96486827	     -0.98386845	     26.78071572	      0.46741167	      7.27016372	     -2.50583240	     -7.20381589	     -1.65018152	      4.33183568	      1.50540913	     36.70892879	    -12.12983163	     72.56408621	    131.11496647	     97.13152659	     35.50146627	     -3.45819936	     47.25480407	    120.55602597	    100.14750390
      0.41666670	     -2.67453036	      2.69027303	     -7.19394144	      0.86353708	      0.93949377	     -0.35964375	      2.31646105	      2.35539152	      6.01613471	      6.53359840	      0.11403280	      6.50341639	     -6.51069454	     -7.27830529	     13.67698629	     -5.08519899	     -0.96064970	     25.45144427	      0.44421150	      7.71577962	     -2.14424303	     -7.27830529	     -1.58382300	      4.78084522	      1.36396670	     36.65618782	    -11.99652203	     72.12087038	    131.03367466	    100.28093089	     34.82090520	     -3.40296118	     45.69738220	    120.54416310	    103.75839507
      0.43333330	     -2.64675278	      2.41561821	     -7.33731948	      0.86358799	      0.93919294	     -0.36001082	      2.02223135	      2.49381480	      6.25056968	      6.29492523	      0.10986717	      6.66235971	     -6.62544852	     -7.28619029	     12.55539242	     -5.30780358	     -0.80704576	     24.14137328	      0.42134645	      8.01754177	     -2.12083084	     -7.28619029	     -1.56387117	      5.18300038	      1.40935891	     36.44921933	    -12.13480582	     72.14470299	    131.45647077	     99.99679715	     34.52832772	     -3.35524840	     45.55360042	    121.12779460	    103.41424819
      0.45000000	     -2.52234606	      2.18571832	     -7.53939805	      0.87012294	      0.93798122	     -0.36392843	      1.48115841	      2.53043758	      6.59532184	      5.91715104	      0.10327377	      6.65254630	     -6.78746830	     -7.29245913	     11.05650198	     -5.36996265	     -0.55298784	     22.48471146	      0.39243225	      8.24492974	     -2.05086785	     -7.29245913	     -1.58884813	      5.59617160	      1.34311567	     36.30907146	    -12.31009701	     72.33707564	    131.81444081	    100.03595485	     33.97011077	     -3.53819667	     45.42229361	    121.55226579	    103.46270424
      0.46666670	     -2.36368600	      1.94374503	     -7.63531078	      0.87017101	      0.94116194	     -0.36466886	      0.75925055	      2.57938054	      6.95381329	      5.23055460	      0.09129040	      6.51528714	     -6.88458825	     -7.29872652	      9.44610841	     -5.45384459	     -0.36467042	     20.42993189	      0.35656958	      8.23703240	     -1.68896306	     -7.29872652	     -1.64870556	      5.83327489	      1.02346517	     35.94672231	    -12.40935375	     72.69546864	    131.96359042	    100.11235527	     33.82648124	     -3.83988582	     45.32461493	    122.10528913	    103.45736866
      0.48333330	     -2.32303768	      1.67141859	     -7.71696892	      0.86528484	      0.93845087	     -0.36899209	      0.46399939	      2.69334851	      7.26234731	      4.87915452	      0.08515731	      6.30964303	     -6.96321427	     -7.30404949	      8.28557395	     -5.59697794	     -0.24583411	     18.65216193	      0.32554164	      8.33449496	     -1.22934616	     -7.30404949	     -1.92369705	      6.14151562	      0.62795772	     36.47686688	    -12.59678337	     73.98997760	    133.57625043	    100.35383386	     34.35080618	     -4.17727277	     45.48872599	    122.50708365	    103.60863384
      0.50000000	     -2.26706024	      1.51643969	     -7.71555030	      0.87181912	      0.93883701	     -0.37298325	      0.03925163	      2.63885754	      7.39643995	      4.42838203	      0.07728985	      6.17610989	     -6.94724464	     -7.30840198	      7.05724580	     -5.53677840	     -0.13511418	     16.81071652	      0.29340235	      8.35627469	     -0.94629667	     -7.30840198	     -1.87238557	      6.38295854	      0.32301536	     36.64103132	    -12.67830181	     74.40300301	    134.56131057	    100.37599377	     34.34860577	     -4.22971543	     45.96700459	    123.23988908	    103.58581340
